<mxfile modified="2023-11-17T22:35:05.458Z" host="Electron" agent="Mozilla/5.0 (Windows NT 10.0; Win64; x64) AppleWebKit/537.36 (KHTML, like Gecko) draw.io/22.0.2 Chrome/114.0.5735.289 Electron/25.8.4 Safari/537.36" etag="oFVPlKnGVd93PCQbu9Uh" version="22.0.2" type="device">
  <diagram id="Kx7BZhfDVcGH-vfPJNhq" name="Page-1">
    <mxGraphModel dx="2026" dy="1171" grid="1" gridSize="10" guides="1" tooltips="1" connect="1" arrows="1" fold="1" page="1" pageScale="1" pageWidth="850" pageHeight="1100" math="0" shadow="0">
      <root>
        <mxCell id="0" />
        <mxCell id="1" parent="0" />
        <mxCell id="q3agYkE8V6TntHk_BGS8-1" value="AWS us-east-2 Region" style="points=[[0,0],[0.25,0],[0.5,0],[0.75,0],[1,0],[1,0.25],[1,0.5],[1,0.75],[1,1],[0.75,1],[0.5,1],[0.25,1],[0,1],[0,0.75],[0,0.5],[0,0.25]];outlineConnect=0;gradientColor=none;html=1;whiteSpace=wrap;fontSize=12;fontStyle=0;container=1;pointerEvents=0;collapsible=0;recursiveResize=0;shape=mxgraph.aws4.group;grIcon=mxgraph.aws4.group_region;strokeColor=#147EBA;fillColor=none;verticalAlign=top;align=left;spacingLeft=30;fontColor=#147EBA;dashed=1;" vertex="1" parent="1">
          <mxGeometry x="80" y="30" width="1140" height="1155" as="geometry" />
        </mxCell>
        <mxCell id="uuqb0yXT_RBDWyhxn5FE-1" value="Amazon S3&lt;br&gt;udacity-tf-tranghv" style="sketch=0;outlineConnect=0;fontColor=#232F3E;gradientColor=none;strokeColor=#ffffff;fillColor=#232F3E;dashed=0;verticalLabelPosition=middle;verticalAlign=bottom;align=center;html=1;whiteSpace=wrap;fontSize=10;fontStyle=1;spacing=3;shape=mxgraph.aws4.productIcon;prIcon=mxgraph.aws4.s3;" vertex="1" parent="q3agYkE8V6TntHk_BGS8-1">
          <mxGeometry x="50" y="40" width="80" height="130" as="geometry" />
        </mxCell>
        <mxCell id="O68qlO-6uMGRPbFw-VZw-4" value="VPC udacity-project" style="points=[[0,0],[0.25,0],[0.5,0],[0.75,0],[1,0],[1,0.25],[1,0.5],[1,0.75],[1,1],[0.75,1],[0.5,1],[0.25,1],[0,1],[0,0.75],[0,0.5],[0,0.25]];outlineConnect=0;gradientColor=none;html=1;whiteSpace=wrap;fontSize=15;fontStyle=0;container=1;pointerEvents=0;collapsible=0;recursiveResize=0;shape=mxgraph.aws4.group;grIcon=mxgraph.aws4.group_vpc;strokeColor=#248814;fillColor=none;verticalAlign=top;align=left;spacingLeft=30;fontColor=#474C4D;dashed=0;" vertex="1" parent="q3agYkE8V6TntHk_BGS8-1">
          <mxGeometry x="40" y="290" width="1060" height="540" as="geometry" />
        </mxCell>
        <mxCell id="YZyiwznmQGW5wxvpqrVC-1" style="edgeStyle=orthogonalEdgeStyle;rounded=0;orthogonalLoop=1;jettySize=auto;html=1;" edge="1" parent="O68qlO-6uMGRPbFw-VZw-4" source="b2WzfLROpz-ncuXL63hV-1" target="Y-zoTz72pgeeyKKASgZ0-1">
          <mxGeometry relative="1" as="geometry" />
        </mxCell>
        <mxCell id="b2WzfLROpz-ncuXL63hV-1" value="Application Load Balancer 1" style="sketch=0;outlineConnect=0;fontColor=#232F3E;gradientColor=none;strokeColor=#ffffff;fillColor=#232F3E;dashed=0;verticalLabelPosition=middle;verticalAlign=bottom;align=center;html=1;whiteSpace=wrap;fontSize=10;fontStyle=1;spacing=3;shape=mxgraph.aws4.productIcon;prIcon=mxgraph.aws4.application_load_balancer;" vertex="1" parent="O68qlO-6uMGRPbFw-VZw-4">
          <mxGeometry x="960" y="130" width="80" height="120" as="geometry" />
        </mxCell>
        <mxCell id="Y-zoTz72pgeeyKKASgZ0-1" value="" style="rounded=0;whiteSpace=wrap;html=1;" vertex="1" parent="O68qlO-6uMGRPbFw-VZw-4">
          <mxGeometry x="30" y="80" width="890" height="420" as="geometry" />
        </mxCell>
        <mxCell id="Y-zoTz72pgeeyKKASgZ0-3" value="" style="strokeColor=#dddddd;shadow=1;strokeWidth=1;rounded=1;absoluteArcSize=1;arcSize=2;" vertex="1" parent="O68qlO-6uMGRPbFw-VZw-4">
          <mxGeometry x="30" y="80" width="170" height="70" as="geometry" />
        </mxCell>
        <mxCell id="Y-zoTz72pgeeyKKASgZ0-4" value="&lt;font color=&quot;#000000&quot;&gt;udacity-cluster&lt;/font&gt;&lt;br&gt;Kubernetes v1.28" style="sketch=0;dashed=0;connectable=0;html=1;fillColor=#5184F3;strokeColor=none;shape=mxgraph.gcp2.kubernetes_logo;part=1;labelPosition=right;verticalLabelPosition=middle;align=left;verticalAlign=middle;spacingLeft=5;fontColor=#999999;fontSize=12;" vertex="1" parent="Y-zoTz72pgeeyKKASgZ0-3">
          <mxGeometry width="45" height="43.65" relative="1" as="geometry">
            <mxPoint x="5" y="7.675000000000001" as="offset" />
          </mxGeometry>
        </mxCell>
        <mxCell id="76UqWUDBVLhVjMqSjMMm-8" value="K8S Containers&lt;br&gt;Runtime (EC2)" style="points=[[0,0],[0.25,0],[0.5,0],[0.75,0],[1,0],[1,0.25],[1,0.5],[1,0.75],[1,1],[0.75,1],[0.5,1],[0.25,1],[0,1],[0,0.75],[0,0.5],[0,0.25]];outlineConnect=0;gradientColor=none;html=1;whiteSpace=wrap;fontSize=12;fontStyle=0;container=1;pointerEvents=0;collapsible=0;recursiveResize=0;shape=mxgraph.aws4.group;grIcon=mxgraph.aws4.group_ec2_instance_contents;strokeColor=#D86613;fillColor=none;verticalAlign=top;align=left;spacingLeft=30;fontColor=#D86613;dashed=0;" vertex="1" parent="O68qlO-6uMGRPbFw-VZw-4">
          <mxGeometry x="660" y="100" width="250" height="380" as="geometry" />
        </mxCell>
        <mxCell id="QNGvkzeOSg-f_GMmBxln-3" value="&lt;div style=&quot;font-size: 14px;&quot;&gt;hello-&lt;span style=&quot;background-color: initial; font-size: 14px;&quot;&gt;world (&lt;/span&gt;&lt;span style=&quot;background-color: initial; font-size: 14px;&quot;&gt;1 replica)&lt;/span&gt;&lt;/div&gt;" style="outlineConnect=0;dashed=0;verticalLabelPosition=bottom;verticalAlign=top;align=center;html=1;shape=mxgraph.aws3.ec2_compute_container_2;fillColor=#F58534;gradientColor=none;fontSize=14;" vertex="1" parent="O68qlO-6uMGRPbFw-VZw-4">
          <mxGeometry x="738.85" y="140" width="92.31" height="30" as="geometry" />
        </mxCell>
        <mxCell id="-0pC67cyZoSkr6JRhLOj-1" value="green&amp;nbsp;&lt;span style=&quot;background-color: initial; font-size: 14px;&quot;&gt;(3&lt;/span&gt;&lt;span style=&quot;background-color: initial; font-size: 14px;&quot;&gt;&amp;nbsp;replicas)&lt;/span&gt;" style="outlineConnect=0;dashed=0;verticalLabelPosition=bottom;verticalAlign=top;align=center;html=1;shape=mxgraph.aws3.ec2_compute_container_2;fillColor=#F58534;gradientColor=none;fontSize=14;" vertex="1" parent="O68qlO-6uMGRPbFw-VZw-4">
          <mxGeometry x="741.17" y="320" width="90.76" height="36.37" as="geometry" />
        </mxCell>
        <mxCell id="QNGvkzeOSg-f_GMmBxln-4" value="canary&amp;nbsp;&lt;span style=&quot;background-color: initial; font-size: 14px;&quot;&gt;(3&lt;/span&gt;&lt;span style=&quot;background-color: initial; font-size: 14px;&quot;&gt;&amp;nbsp;replicas)&lt;/span&gt;" style="outlineConnect=0;dashed=0;verticalLabelPosition=bottom;verticalAlign=top;align=center;html=1;shape=mxgraph.aws3.ec2_compute_container_2;fillColor=#F58534;gradientColor=none;fontSize=14;" vertex="1" parent="O68qlO-6uMGRPbFw-VZw-4">
          <mxGeometry x="741.17" y="230" width="92.31" height="30" as="geometry" />
        </mxCell>
        <mxCell id="eKd7gcXQ1hgJrPGlfP8Y-1" value="bloatware&amp;nbsp;&lt;span style=&quot;background-color: initial; font-size: 14px;&quot;&gt;(17&lt;/span&gt;&lt;span style=&quot;background-color: initial; font-size: 14px;&quot;&gt;&amp;nbsp;replicas)&lt;/span&gt;" style="outlineConnect=0;dashed=0;verticalLabelPosition=bottom;verticalAlign=top;align=center;html=1;shape=mxgraph.aws3.ec2_compute_container_2;fillColor=#F58534;gradientColor=none;fontSize=14;" vertex="1" parent="O68qlO-6uMGRPbFw-VZw-4">
          <mxGeometry x="738.8499999999999" y="410" width="90.76" height="36.37" as="geometry" />
        </mxCell>
        <mxCell id="nNjmFC59Iyl9ktZQEuOZ-2" value="configMaps" style="swimlane;whiteSpace=wrap;html=1;" vertex="1" parent="O68qlO-6uMGRPbFw-VZw-4">
          <mxGeometry x="240" y="300" width="350" height="80" as="geometry" />
        </mxCell>
        <mxCell id="amPdtNbhgqcsiCFQmVPs-2" value="blue-config" style="rounded=0;whiteSpace=wrap;html=1;" vertex="1" parent="nNjmFC59Iyl9ktZQEuOZ-2">
          <mxGeometry x="10" y="30" width="77" height="30" as="geometry" />
        </mxCell>
        <mxCell id="amPdtNbhgqcsiCFQmVPs-3" value="green-config" style="rounded=0;whiteSpace=wrap;html=1;" vertex="1" parent="nNjmFC59Iyl9ktZQEuOZ-2">
          <mxGeometry x="120" y="30" width="77" height="30" as="geometry" />
        </mxCell>
        <mxCell id="amPdtNbhgqcsiCFQmVPs-4" value="canary-config-v1" style="rounded=0;whiteSpace=wrap;html=1;" vertex="1" parent="nNjmFC59Iyl9ktZQEuOZ-2">
          <mxGeometry x="230" y="30" width="107" height="30" as="geometry" />
        </mxCell>
        <mxCell id="WN_xfEKyvofoJmLzOniA-1" value="Services" style="swimlane;whiteSpace=wrap;html=1;" vertex="1" parent="O68qlO-6uMGRPbFw-VZw-4">
          <mxGeometry x="240" y="185" width="350" height="90" as="geometry" />
        </mxCell>
        <mxCell id="WN_xfEKyvofoJmLzOniA-2" value="blue-svc" style="rounded=0;whiteSpace=wrap;html=1;" vertex="1" parent="WN_xfEKyvofoJmLzOniA-1">
          <mxGeometry x="10" y="30" width="80" height="40" as="geometry" />
        </mxCell>
        <mxCell id="WN_xfEKyvofoJmLzOniA-3" value="green-svc" style="rounded=0;whiteSpace=wrap;html=1;" vertex="1" parent="WN_xfEKyvofoJmLzOniA-1">
          <mxGeometry x="120" y="30" width="80" height="40" as="geometry" />
        </mxCell>
        <mxCell id="WN_xfEKyvofoJmLzOniA-4" value="hello-world" style="rounded=0;whiteSpace=wrap;html=1;" vertex="1" parent="WN_xfEKyvofoJmLzOniA-1">
          <mxGeometry x="240" y="30" width="80" height="40" as="geometry" />
        </mxCell>
        <mxCell id="c_Z_wsPhn7UDBnDieIgi-8" style="edgeStyle=orthogonalEdgeStyle;rounded=0;orthogonalLoop=1;jettySize=auto;html=1;" edge="1" parent="O68qlO-6uMGRPbFw-VZw-4" source="c_Z_wsPhn7UDBnDieIgi-6" target="Y-zoTz72pgeeyKKASgZ0-1">
          <mxGeometry relative="1" as="geometry" />
        </mxCell>
        <mxCell id="c_Z_wsPhn7UDBnDieIgi-6" value="Application Load Balancer 2" style="sketch=0;outlineConnect=0;fontColor=#232F3E;gradientColor=none;strokeColor=#ffffff;fillColor=#232F3E;dashed=0;verticalLabelPosition=middle;verticalAlign=bottom;align=center;html=1;whiteSpace=wrap;fontSize=10;fontStyle=1;spacing=3;shape=mxgraph.aws4.productIcon;prIcon=mxgraph.aws4.application_load_balancer;" vertex="1" parent="O68qlO-6uMGRPbFw-VZw-4">
          <mxGeometry x="960" y="310" width="80" height="120" as="geometry" />
        </mxCell>
        <mxCell id="9qNYIKRPmQQQHa22poX9-1" value="AZ us-east-2a" style="rounded=1;arcSize=10;dashed=1;strokeColor=#F59D56;fillColor=none;gradientColor=none;dashPattern=8 4;strokeWidth=2;" vertex="1" parent="q3agYkE8V6TntHk_BGS8-1">
          <mxGeometry x="220" y="60" width="150" height="60" as="geometry" />
        </mxCell>
        <mxCell id="nK1MQmYpzXDik6p9zuTt-1" value="AZ us-east-2b" style="rounded=1;arcSize=10;dashed=1;strokeColor=#F59D56;fillColor=none;gradientColor=none;dashPattern=8 4;strokeWidth=2;" vertex="1" parent="q3agYkE8V6TntHk_BGS8-1">
          <mxGeometry x="540" y="60" width="150" height="60" as="geometry" />
        </mxCell>
        <mxCell id="nK1MQmYpzXDik6p9zuTt-2" value="AZ us-east-2c" style="rounded=1;arcSize=10;dashed=1;strokeColor=#F59D56;fillColor=none;gradientColor=none;dashPattern=8 4;strokeWidth=2;" vertex="1" parent="q3agYkE8V6TntHk_BGS8-1">
          <mxGeometry x="880" y="60" width="150" height="60" as="geometry" />
        </mxCell>
        <mxCell id="8vFCqNyKynn3roOlDlQP-1" value="IAM" style="swimlane;whiteSpace=wrap;html=1;" vertex="1" parent="q3agYkE8V6TntHk_BGS8-1">
          <mxGeometry x="620" y="850" width="465" height="160" as="geometry" />
        </mxCell>
        <mxCell id="a6lAA3hlsCobOYoO-oLq-3" value="Roles" style="swimlane;fontStyle=0;childLayout=stackLayout;horizontal=1;startSize=30;horizontalStack=0;resizeParent=1;resizeParentMax=0;resizeLast=0;collapsible=1;marginBottom=0;whiteSpace=wrap;html=1;" vertex="1" parent="8vFCqNyKynn3roOlDlQP-1">
          <mxGeometry x="122.5" y="29.5" width="167.5" height="120" as="geometry" />
        </mxCell>
        <mxCell id="a6lAA3hlsCobOYoO-oLq-4" value="app-udacity-eks-cluster-role" style="text;strokeColor=none;fillColor=none;align=left;verticalAlign=middle;spacingLeft=4;spacingRight=4;overflow=hidden;points=[[0,0.5],[1,0.5]];portConstraint=eastwest;rotatable=0;whiteSpace=wrap;html=1;" vertex="1" parent="a6lAA3hlsCobOYoO-oLq-3">
          <mxGeometry y="30" width="167.5" height="30" as="geometry" />
        </mxCell>
        <mxCell id="a6lAA3hlsCobOYoO-oLq-5" value="&lt;div&gt;app-udacity-eks-node-role&lt;/div&gt;" style="text;strokeColor=none;fillColor=none;align=left;verticalAlign=middle;spacingLeft=4;spacingRight=4;overflow=hidden;points=[[0,0.5],[1,0.5]];portConstraint=eastwest;rotatable=0;whiteSpace=wrap;html=1;" vertex="1" parent="a6lAA3hlsCobOYoO-oLq-3">
          <mxGeometry y="60" width="167.5" height="30" as="geometry" />
        </mxCell>
        <mxCell id="a6lAA3hlsCobOYoO-oLq-6" value="udacity-k8s-autoscale" style="text;strokeColor=none;fillColor=none;align=left;verticalAlign=middle;spacingLeft=4;spacingRight=4;overflow=hidden;points=[[0,0.5],[1,0.5]];portConstraint=eastwest;rotatable=0;whiteSpace=wrap;html=1;" vertex="1" parent="a6lAA3hlsCobOYoO-oLq-3">
          <mxGeometry y="90" width="167.5" height="30" as="geometry" />
        </mxCell>
        <mxCell id="c_iIYhNCu-_TknNWtUge-1" value="Policies" style="swimlane;fontStyle=0;childLayout=stackLayout;horizontal=1;startSize=30;horizontalStack=0;resizeParent=1;resizeParentMax=0;resizeLast=0;collapsible=1;marginBottom=0;whiteSpace=wrap;html=1;" vertex="1" parent="8vFCqNyKynn3roOlDlQP-1">
          <mxGeometry x="295" y="29.5" width="160" height="120" as="geometry" />
        </mxCell>
        <mxCell id="c_iIYhNCu-_TknNWtUge-2" value="&lt;div&gt;&lt;br&gt;&lt;/div&gt;&lt;div&gt;&lt;span style=&quot;background-color: initial;&quot;&gt;app-udacity-eks-cluster-role&lt;/span&gt;&lt;/div&gt;" style="text;strokeColor=none;fillColor=none;align=left;verticalAlign=middle;spacingLeft=4;spacingRight=4;overflow=hidden;points=[[0,0.5],[1,0.5]];portConstraint=eastwest;rotatable=0;whiteSpace=wrap;html=1;" vertex="1" parent="c_iIYhNCu-_TknNWtUge-1">
          <mxGeometry y="30" width="160" height="30" as="geometry" />
        </mxCell>
        <mxCell id="c_iIYhNCu-_TknNWtUge-3" value="&lt;div&gt;&lt;br&gt;&lt;/div&gt;&lt;div&gt;app-udacity-eks-node-role&lt;/div&gt;" style="text;strokeColor=none;fillColor=none;align=left;verticalAlign=middle;spacingLeft=4;spacingRight=4;overflow=hidden;points=[[0,0.5],[1,0.5]];portConstraint=eastwest;rotatable=0;whiteSpace=wrap;html=1;" vertex="1" parent="c_iIYhNCu-_TknNWtUge-1">
          <mxGeometry y="60" width="160" height="30" as="geometry" />
        </mxCell>
        <mxCell id="c_iIYhNCu-_TknNWtUge-4" value="udacity-k8s-autoscale" style="text;strokeColor=none;fillColor=none;align=left;verticalAlign=middle;spacingLeft=4;spacingRight=4;overflow=hidden;points=[[0,0.5],[1,0.5]];portConstraint=eastwest;rotatable=0;whiteSpace=wrap;html=1;" vertex="1" parent="c_iIYhNCu-_TknNWtUge-1">
          <mxGeometry y="90" width="160" height="30" as="geometry" />
        </mxCell>
        <mxCell id="c_Z_wsPhn7UDBnDieIgi-1" value="Users" style="swimlane;fontStyle=0;childLayout=stackLayout;horizontal=1;startSize=30;horizontalStack=0;resizeParent=1;resizeParentMax=0;resizeLast=0;collapsible=1;marginBottom=0;whiteSpace=wrap;html=1;" vertex="1" parent="8vFCqNyKynn3roOlDlQP-1">
          <mxGeometry x="15" y="29.5" width="95" height="60" as="geometry" />
        </mxCell>
        <mxCell id="c_Z_wsPhn7UDBnDieIgi-2" value="tranghv" style="text;strokeColor=none;fillColor=none;align=left;verticalAlign=middle;spacingLeft=4;spacingRight=4;overflow=hidden;points=[[0,0.5],[1,0.5]];portConstraint=eastwest;rotatable=0;whiteSpace=wrap;html=1;" vertex="1" parent="c_Z_wsPhn7UDBnDieIgi-1">
          <mxGeometry y="30" width="95" height="30" as="geometry" />
        </mxCell>
        <mxCell id="TnB4dVs9w-pLyhByd2yh-5" value="on:push" style="edgeStyle=orthogonalEdgeStyle;rounded=0;orthogonalLoop=1;jettySize=auto;html=1;" edge="1" parent="q3agYkE8V6TntHk_BGS8-1" source="TnB4dVs9w-pLyhByd2yh-2" target="TnB4dVs9w-pLyhByd2yh-4">
          <mxGeometry relative="1" as="geometry" />
        </mxCell>
        <mxCell id="TnB4dVs9w-pLyhByd2yh-2" value="Github" style="dashed=0;outlineConnect=0;html=1;align=center;labelPosition=center;verticalLabelPosition=bottom;verticalAlign=top;shape=mxgraph.weblogos.github" vertex="1" parent="q3agYkE8V6TntHk_BGS8-1">
          <mxGeometry x="220" y="1020" width="60" height="60" as="geometry" />
        </mxCell>
        <mxCell id="TnB4dVs9w-pLyhByd2yh-3" value="Git Push" style="edgeStyle=orthogonalEdgeStyle;rounded=0;orthogonalLoop=1;jettySize=auto;html=1;" edge="1" parent="q3agYkE8V6TntHk_BGS8-1" source="TnB4dVs9w-pLyhByd2yh-1" target="TnB4dVs9w-pLyhByd2yh-2">
          <mxGeometry relative="1" as="geometry" />
        </mxCell>
        <mxCell id="TnB4dVs9w-pLyhByd2yh-1" value="Developer" style="points=[[0.35,0,0],[0.98,0.51,0],[1,0.71,0],[0.67,1,0],[0,0.795,0],[0,0.65,0]];verticalLabelPosition=bottom;sketch=0;html=1;verticalAlign=top;aspect=fixed;align=center;pointerEvents=1;shape=mxgraph.cisco19.user;fillColor=#005073;strokeColor=none;" vertex="1" parent="q3agYkE8V6TntHk_BGS8-1">
          <mxGeometry x="70" y="1025" width="50" height="50" as="geometry" />
        </mxCell>
        <mxCell id="TnB4dVs9w-pLyhByd2yh-7" value="dockerize and push" style="edgeStyle=orthogonalEdgeStyle;rounded=0;orthogonalLoop=1;jettySize=auto;html=1;" edge="1" parent="q3agYkE8V6TntHk_BGS8-1" source="TnB4dVs9w-pLyhByd2yh-4" target="TnB4dVs9w-pLyhByd2yh-6">
          <mxGeometry relative="1" as="geometry" />
        </mxCell>
        <mxCell id="TnB4dVs9w-pLyhByd2yh-4" value="GiitHub Actions CI" style="image;aspect=fixed;perimeter=ellipsePerimeter;html=1;align=center;shadow=0;dashed=0;fontColor=#4277BB;labelBackgroundColor=default;fontSize=12;spacingTop=3;image=img/lib/ibm/devops/build_test.svg;" vertex="1" parent="q3agYkE8V6TntHk_BGS8-1">
          <mxGeometry x="380" y="1020" width="60" height="60" as="geometry" />
        </mxCell>
        <mxCell id="TnB4dVs9w-pLyhByd2yh-8" value="docker image pull" style="edgeStyle=orthogonalEdgeStyle;rounded=0;orthogonalLoop=1;jettySize=auto;html=1;" edge="1" parent="q3agYkE8V6TntHk_BGS8-1" source="TnB4dVs9w-pLyhByd2yh-6" target="Y-zoTz72pgeeyKKASgZ0-1">
          <mxGeometry relative="1" as="geometry" />
        </mxCell>
        <mxCell id="TnB4dVs9w-pLyhByd2yh-6" value="GitHub Docker Register" style="image;sketch=0;aspect=fixed;html=1;points=[];align=center;fontSize=12;image=img/lib/mscae/Docker.svg;" vertex="1" parent="q3agYkE8V6TntHk_BGS8-1">
          <mxGeometry x="374.02" y="850" width="71.95" height="59" as="geometry" />
        </mxCell>
        <mxCell id="b2WzfLROpz-ncuXL63hV-2" style="edgeStyle=orthogonalEdgeStyle;rounded=0;orthogonalLoop=1;jettySize=auto;html=1;" edge="1" parent="1" source="O68qlO-6uMGRPbFw-VZw-5" target="b2WzfLROpz-ncuXL63hV-1">
          <mxGeometry relative="1" as="geometry" />
        </mxCell>
        <mxCell id="c_Z_wsPhn7UDBnDieIgi-7" style="edgeStyle=orthogonalEdgeStyle;rounded=0;orthogonalLoop=1;jettySize=auto;html=1;" edge="1" parent="1" source="O68qlO-6uMGRPbFw-VZw-5" target="c_Z_wsPhn7UDBnDieIgi-6">
          <mxGeometry relative="1" as="geometry" />
        </mxCell>
        <mxCell id="O68qlO-6uMGRPbFw-VZw-5" value="Amazon Route 53" style="sketch=0;outlineConnect=0;fontColor=#232F3E;gradientColor=none;strokeColor=#ffffff;fillColor=#232F3E;dashed=0;verticalLabelPosition=middle;verticalAlign=bottom;align=center;html=1;whiteSpace=wrap;fontSize=10;fontStyle=1;spacing=3;shape=mxgraph.aws4.productIcon;prIcon=mxgraph.aws4.route_53;" vertex="1" parent="1">
          <mxGeometry x="1310" y="550" width="80" height="110" as="geometry" />
        </mxCell>
      </root>
    </mxGraphModel>
  </diagram>
</mxfile>
